<svg xmlns="http://www.w3.org/2000/svg" viewBox="0 0 17 15" width="17px" height="15px">
  <path style="fill:white; filter:drop-shadow(0 0 2px rgba(0,0,0,.5))" d="M17,2.85a3.27,3.27,0,0,1-.83,1.24c-.48.51-1,1-1.48,1.5a2.47,2.47,0,0,1-1.92.71,2.37,2.37,0,0,1-.64-.14.18.18,0,0,0-.23,0c-2.11,2.24-4.24,4.47-6.36,6.71-.6.63-1.21,1.26-1.8,1.9a.44.44,0,0,1-.52.14,1.63,1.63,0,0,1-1-1.08.4.4,0,0,1,.13-.46L10.9,5.28A.16.16,0,0,0,11,5.06a2.27,2.27,0,0,1,.24-2.41,2,2,0,0,1,.32-.38,18.19,18.19,0,0,1,2.13-2A1.85,1.85,0,0,1,14.2,0a.78.78,0,0,1,.67.2l-.13.14L12.56,2.64c-.18.19-.2.34-.05.49a.29.29,0,0,0,.45,0l1.27-1.08L15.59.89l.42.46-.09.11-2.1,2.47c-.18.21-.18.36,0,.51a.27.27,0,0,0,.35,0,.81.81,0,0,0,.14-.12l2.27-2.17L16.73,2l.27.52Z" />
  <path style="fill:white; filter:drop-shadow(0 0 2px rgba(0,0,0,.5))" d="M5.55,5.21,7.78,7.32,6.65,8.4a1.11,1.11,0,0,0-.11-.16l-1.87-2c0-.06-.09-.12-.19-.07A2.26,2.26,0,0,1,2.12,6,4.84,4.84,0,0,1,0,2.43,1.55,1.55,0,0,1,.6.91,1.74,1.74,0,0,1,1.79.59a4.15,4.15,0,0,1,1.78.54A4.64,4.64,0,0,1,5.31,2.56,2.41,2.41,0,0,1,5.55,5.21Z" />
  <path style="fill:white; filter:drop-shadow(0 0 2px rgba(0,0,0,.5))" d="M8.73,10.53,9.88,9.32l.14.13,4.19,4a.4.4,0,0,1,.13.47A1.64,1.64,0,0,1,13.2,15a.37.37,0,0,1-.36-.11L8.79,10.61Z" />
</svg>