<svg xmlns="http://www.w3.org/2000/svg" viewBox="0 0 20.06 20.07">
  <g style="fill:white; filter:drop-shadow(0 0 2px rgba(0,0,0,.5))">
    <path d="M11.91,0c.55.23.42.72.43,1.18h.23c.73,0,1.45,0,2.18,0a4.11,4.11,0,0,1,4.14,4.14c0,1,0,1.94,0,2.92a.21.21,0,0,0,.15.23,1.76,1.76,0,0,1-1,3.34,1.77,1.77,0,0,1-.34-3.41V5.31a2.94,2.94,0,0,0-3-3H12.34c0,.39,0,.77,0,1.15,0,0,.09.09.15.1A3.52,3.52,0,0,1,15,5.66a8.13,8.13,0,0,1,.26.79H8.3A3.11,3.11,0,0,1,8.77,5.2,3.45,3.45,0,0,1,11,3.61c.13,0,.16-.08.16-.2,0-.35,0-.69,0-1.05h-7V3.57A3.58,3.58,0,0,1,7,6.46H.07A3.35,3.35,0,0,1,1,4.57a3.47,3.47,0,0,1,1.89-1V2.35H2.06c-.42,0-.85,0-1.27,0A.74.74,0,0,1,0,1.92V1.61a.74.74,0,0,1,.79-.44c.59,0,1.19,0,1.79,0h.36C3,.72,2.82.23,3.37,0h.31c.56.23.41.74.44,1.17h7c0-.44-.11-.94.44-1.17Z" />
    <path d="M0,7.64H7v7.72H0Z" />
    <path d="M0,16.54H7a1,1,0,0,1,0,.17V19.4a.59.59,0,0,1-.66.66H.79A.76.76,0,0,1,0,19.63Z" />
    <path d="M15.27,7.65v7.7h-7V7.65Z" />
    <path d="M15.28,16.55c0,1,0,2,0,2.95a.58.58,0,0,1-.63.56H8.91a.6.6,0,0,1-.68-.68V16.55Z" />
  </g>
</svg>