<svg xmlns="http://www.w3.org/2000/svg" viewBox="0 0 14.82 20.74">
  <path fill="white" style="filter:drop-shadow(0 0 2px rgba(0,0,0,.5))" d="M7,20.74l-.62-.08a7.33,7.33,0,0,1-5.64-4.1A7.1,7.1,0,0,1,0,13.14a6.34,6.34,0,0,1,.42-1.87A23.87,23.87,0,0,1,2.33,7.33C3.67,5,5.15,2.76,6.67.55A1.66,1.66,0,0,1,7.05.14a.59.59,0,0,1,.83.07A1.41,1.41,0,0,1,8.13.5c1.5,2.21,3,4.43,4.33,6.75a26.34,26.34,0,0,1,1.94,4,6.49,6.49,0,0,1-.24,5.13A7.17,7.17,0,0,1,11,19.8a7.33,7.33,0,0,1-3,.91l-.19,0Zm6.68-6.95c0-.78-.54-1.22-1.16-1a.92.92,0,0,0-.62.92,4.38,4.38,0,0,1-.46,1.66,4.62,4.62,0,0,1-1.8,1.89.87.87,0,0,0-.3,1.28.86.86,0,0,0,1.25.23,6.33,6.33,0,0,0,3.09-4.95Z" />
</svg>